<mxfile host="app.diagrams.net" agent="Mozilla/5.0 (Windows NT 10.0; Win64; x64) AppleWebKit/537.36 (KHTML, like Gecko) Chrome/126.0.0.0 Safari/537.36" version="24.8.0">
  <diagram name="Страница — 1" id="AhsqC-a8phbSn4TLKKLI">
    <mxGraphModel dx="1760" dy="936" grid="0" gridSize="10" guides="1" tooltips="1" connect="1" arrows="1" fold="1" page="1" pageScale="1" pageWidth="827" pageHeight="1169" background="#F9F2FF" math="0" shadow="0">
      <root>
        <mxCell id="0" />
        <mxCell id="1" parent="0" />
        <mxCell id="f-fRrLMS72BcWbw2DPmJ-4" value="&lt;font style=&quot;font-size: 14px;&quot;&gt;&lt;b&gt;Как &lt;/b&gt;пользователь мобильного приложения Lamoda,&lt;br&gt;&lt;b&gt;Я хочу&lt;/b&gt; иметь возможность просматривать акционные предложения,&lt;br&gt;&lt;b&gt;Чтобы &lt;/b&gt;совершить выгодный заказ&lt;/font&gt;" style="rounded=1;whiteSpace=wrap;html=1;glass=0;sketch=1;curveFitting=1;jiggle=2;shadow=0;fillColor=#e1d5e7;strokeColor=#9673a6;" parent="1" vertex="1">
          <mxGeometry x="728" y="12" width="410" height="145" as="geometry" />
        </mxCell>
        <mxCell id="lJF0jtRhuvwRpikgw8jF-5" value="" style="rounded=1;whiteSpace=wrap;html=1;" parent="1" vertex="1">
          <mxGeometry x="625" y="211.0300000000001" width="216" height="355" as="geometry" />
        </mxCell>
        <mxCell id="lJF0jtRhuvwRpikgw8jF-13" value="Мужчинам" style="rounded=0;whiteSpace=wrap;html=1;" parent="1" vertex="1">
          <mxGeometry x="709" y="261.0300000000001" width="64" height="35" as="geometry" />
        </mxCell>
        <mxCell id="lJF0jtRhuvwRpikgw8jF-17" value="" style="rounded=0;whiteSpace=wrap;html=1;strokeColor=#FF0000;strokeWidth=3;" parent="1" vertex="1">
          <mxGeometry x="630" y="257.5300000000001" width="74" height="42" as="geometry" />
        </mxCell>
        <mxCell id="lJF0jtRhuvwRpikgw8jF-12" value="Женщинам" style="rounded=0;whiteSpace=wrap;html=1;" parent="1" vertex="1">
          <mxGeometry x="632.5" y="261.0300000000001" width="69" height="35" as="geometry" />
        </mxCell>
        <mxCell id="lJF0jtRhuvwRpikgw8jF-14" value="Детям" style="rounded=0;whiteSpace=wrap;html=1;" parent="1" vertex="1">
          <mxGeometry x="778.75" y="261.0300000000001" width="57.25" height="35" as="geometry" />
        </mxCell>
        <mxCell id="lJF0jtRhuvwRpikgw8jF-16" value="" style="rounded=1;whiteSpace=wrap;html=1;" parent="1" vertex="1">
          <mxGeometry x="58" y="211" width="216" height="355" as="geometry" />
        </mxCell>
        <mxCell id="lJF0jtRhuvwRpikgw8jF-25" value="" style="rounded=0;whiteSpace=wrap;html=1;strokeColor=#FF0000;strokeWidth=3;" parent="1" vertex="1">
          <mxGeometry x="63.5" y="268.5" width="91" height="46" as="geometry" />
        </mxCell>
        <mxCell id="lJF0jtRhuvwRpikgw8jF-20" value="Лучшие акции" style="rounded=0;whiteSpace=wrap;html=1;" parent="1" vertex="1">
          <mxGeometry x="66" y="273" width="86" height="37" as="geometry" />
        </mxCell>
        <mxCell id="lJF0jtRhuvwRpikgw8jF-21" value="Новинки" style="rounded=0;whiteSpace=wrap;html=1;" parent="1" vertex="1">
          <mxGeometry x="67" y="321" width="86" height="34" as="geometry" />
        </mxCell>
        <mxCell id="lJF0jtRhuvwRpikgw8jF-22" value="Распродажа" style="rounded=0;whiteSpace=wrap;html=1;" parent="1" vertex="1">
          <mxGeometry x="66" y="366" width="87" height="37" as="geometry" />
        </mxCell>
        <mxCell id="lJF0jtRhuvwRpikgw8jF-30" value="" style="rounded=1;whiteSpace=wrap;html=1;" parent="1" vertex="1">
          <mxGeometry x="910" y="211" width="216" height="355" as="geometry" />
        </mxCell>
        <mxCell id="lJF0jtRhuvwRpikgw8jF-31" value="&lt;font style=&quot;font-size: 11px;&quot;&gt;Акционный товар 1&lt;/font&gt;" style="whiteSpace=wrap;html=1;aspect=fixed;" parent="1" vertex="1">
          <mxGeometry x="922.5" y="282.5" width="81" height="81" as="geometry" />
        </mxCell>
        <mxCell id="lJF0jtRhuvwRpikgw8jF-32" value="&lt;font style=&quot;font-size: 11px;&quot;&gt;Акционный товар 2&lt;/font&gt;" style="whiteSpace=wrap;html=1;aspect=fixed;" parent="1" vertex="1">
          <mxGeometry x="1032" y="281.5" width="83" height="83" as="geometry" />
        </mxCell>
        <mxCell id="lJF0jtRhuvwRpikgw8jF-33" value="&lt;font style=&quot;font-size: 11px;&quot;&gt;Акционный товар 3&lt;/font&gt;" style="whiteSpace=wrap;html=1;aspect=fixed;" parent="1" vertex="1">
          <mxGeometry x="922.5" y="391" width="84" height="84" as="geometry" />
        </mxCell>
        <mxCell id="lJF0jtRhuvwRpikgw8jF-34" value="&lt;font style=&quot;font-size: 11px;&quot;&gt;Акционный товар n&lt;/font&gt;" style="whiteSpace=wrap;html=1;aspect=fixed;" parent="1" vertex="1">
          <mxGeometry x="1032" y="390" width="85" height="85" as="geometry" />
        </mxCell>
        <mxCell id="lJF0jtRhuvwRpikgw8jF-46" value="Корзина" style="whiteSpace=wrap;html=1;aspect=fixed;" parent="1" vertex="1">
          <mxGeometry x="989" y="503" width="55" height="55" as="geometry" />
        </mxCell>
        <mxCell id="lJF0jtRhuvwRpikgw8jF-57" value="" style="whiteSpace=wrap;html=1;aspect=fixed;strokeColor=#FF0000;strokeWidth=2;" parent="1" vertex="1">
          <mxGeometry x="951" y="446.75" width="29.5" height="29.5" as="geometry" />
        </mxCell>
        <mxCell id="lJF0jtRhuvwRpikgw8jF-48" value="&lt;font style=&quot;font-size: 8px;&quot;&gt;Купить&lt;/font&gt;" style="whiteSpace=wrap;html=1;aspect=fixed;" parent="1" vertex="1">
          <mxGeometry x="953.25" y="449" width="25" height="25" as="geometry" />
        </mxCell>
        <mxCell id="lJF0jtRhuvwRpikgw8jF-49" value="&lt;font style=&quot;font-size: 8px;&quot;&gt;Купить&lt;/font&gt;" style="whiteSpace=wrap;html=1;aspect=fixed;" parent="1" vertex="1">
          <mxGeometry x="1065" y="446.75" width="25" height="25" as="geometry" />
        </mxCell>
        <mxCell id="lJF0jtRhuvwRpikgw8jF-50" value="&lt;font style=&quot;font-size: 8px;&quot;&gt;Купить&lt;/font&gt;" style="whiteSpace=wrap;html=1;aspect=fixed;" parent="1" vertex="1">
          <mxGeometry x="1062" y="338" width="25" height="25" as="geometry" />
        </mxCell>
        <mxCell id="lJF0jtRhuvwRpikgw8jF-51" value="&lt;font style=&quot;font-size: 8px;&quot;&gt;Купить&lt;/font&gt;" style="whiteSpace=wrap;html=1;aspect=fixed;" parent="1" vertex="1">
          <mxGeometry x="950.5" y="338" width="25" height="25" as="geometry" />
        </mxCell>
        <mxCell id="lJF0jtRhuvwRpikgw8jF-53" value="Назад" style="rounded=1;whiteSpace=wrap;html=1;" parent="1" vertex="1">
          <mxGeometry x="924" y="224" width="43" height="30" as="geometry" />
        </mxCell>
        <mxCell id="lJF0jtRhuvwRpikgw8jF-54" value="Назад" style="rounded=1;whiteSpace=wrap;html=1;" parent="1" vertex="1">
          <mxGeometry x="638" y="222.0300000000001" width="43" height="30" as="geometry" />
        </mxCell>
        <mxCell id="KlGLypBca4jqxsCxjCPI-1" value="" style="rounded=1;whiteSpace=wrap;html=1;" parent="1" vertex="1">
          <mxGeometry x="338" y="211" width="216" height="355" as="geometry" />
        </mxCell>
        <mxCell id="KlGLypBca4jqxsCxjCPI-2" value="Назад" style="rounded=1;whiteSpace=wrap;html=1;" parent="1" vertex="1">
          <mxGeometry x="347" y="226" width="43" height="30" as="geometry" />
        </mxCell>
        <mxCell id="KlGLypBca4jqxsCxjCPI-12" value="" style="rounded=0;whiteSpace=wrap;html=1;strokeColor=#FF0000;strokeWidth=2;" parent="1" vertex="1">
          <mxGeometry x="346" y="278" width="92" height="41" as="geometry" />
        </mxCell>
        <mxCell id="KlGLypBca4jqxsCxjCPI-3" value="Скидки до 60% на бренд" style="rounded=0;whiteSpace=wrap;html=1;" parent="1" vertex="1">
          <mxGeometry x="347" y="280.5" width="86" height="34" as="geometry" />
        </mxCell>
        <mxCell id="KlGLypBca4jqxsCxjCPI-4" value="Скидки на день рождения" style="rounded=0;whiteSpace=wrap;html=1;" parent="1" vertex="1">
          <mxGeometry x="346" y="336" width="88" height="34" as="geometry" />
        </mxCell>
        <mxCell id="KlGLypBca4jqxsCxjCPI-5" value="Черная пятница&amp;nbsp;" style="rounded=0;whiteSpace=wrap;html=1;" parent="1" vertex="1">
          <mxGeometry x="346" y="388" width="86" height="34" as="geometry" />
        </mxCell>
        <mxCell id="KlGLypBca4jqxsCxjCPI-6" value="Всё по 800" style="rounded=0;whiteSpace=wrap;html=1;" parent="1" vertex="1">
          <mxGeometry x="347" y="440.25" width="86" height="34" as="geometry" />
        </mxCell>
        <mxCell id="KlGLypBca4jqxsCxjCPI-7" value="" style="endArrow=classic;html=1;rounded=0;exitX=0.75;exitY=0;exitDx=0;exitDy=0;entryX=0;entryY=0.5;entryDx=0;entryDy=0;edgeStyle=orthogonalEdgeStyle;strokeWidth=2;strokeColor=#FF0000;" parent="1" source="lJF0jtRhuvwRpikgw8jF-25" target="KlGLypBca4jqxsCxjCPI-1" edge="1">
          <mxGeometry width="50" height="50" relative="1" as="geometry">
            <mxPoint x="165" y="190" as="sourcePoint" />
            <mxPoint x="215" y="140" as="targetPoint" />
            <Array as="points">
              <mxPoint x="132" y="176" />
              <mxPoint x="294" y="176" />
              <mxPoint x="294" y="389" />
            </Array>
          </mxGeometry>
        </mxCell>
        <mxCell id="KlGLypBca4jqxsCxjCPI-26" value="переходим в раздел лучших акций" style="edgeLabel;html=1;align=center;verticalAlign=middle;resizable=0;points=[];" parent="KlGLypBca4jqxsCxjCPI-7" vertex="1" connectable="0">
          <mxGeometry x="-0.3556" y="-1" relative="1" as="geometry">
            <mxPoint as="offset" />
          </mxGeometry>
        </mxCell>
        <mxCell id="KlGLypBca4jqxsCxjCPI-24" value="" style="endArrow=classic;html=1;rounded=0;exitX=0.75;exitY=0;exitDx=0;exitDy=0;entryX=0;entryY=0.5;entryDx=0;entryDy=0;edgeStyle=orthogonalEdgeStyle;strokeColor=#FF0000;strokeWidth=2;" parent="1" source="KlGLypBca4jqxsCxjCPI-12" target="lJF0jtRhuvwRpikgw8jF-5" edge="1">
          <mxGeometry width="50" height="50" relative="1" as="geometry">
            <mxPoint x="495" y="191" as="sourcePoint" />
            <mxPoint x="545" y="141" as="targetPoint" />
            <Array as="points">
              <mxPoint x="415" y="173" />
              <mxPoint x="582" y="173" />
              <mxPoint x="582" y="389" />
            </Array>
          </mxGeometry>
        </mxCell>
        <mxCell id="KlGLypBca4jqxsCxjCPI-27" value="выбираем интересующую секцию" style="edgeLabel;html=1;align=center;verticalAlign=middle;resizable=0;points=[];" parent="KlGLypBca4jqxsCxjCPI-24" vertex="1" connectable="0">
          <mxGeometry x="-0.2686" y="-3" relative="1" as="geometry">
            <mxPoint as="offset" />
          </mxGeometry>
        </mxCell>
        <mxCell id="KlGLypBca4jqxsCxjCPI-28" value="Одежда" style="rounded=0;whiteSpace=wrap;html=1;" parent="1" vertex="1">
          <mxGeometry x="632.5" y="314.5" width="70" height="27" as="geometry" />
        </mxCell>
        <mxCell id="KlGLypBca4jqxsCxjCPI-33" value="" style="rounded=0;whiteSpace=wrap;html=1;strokeColor=#FF0000;strokeWidth=2;" parent="1" vertex="1">
          <mxGeometry x="632.5" y="351.5" width="74" height="34" as="geometry" />
        </mxCell>
        <mxCell id="KlGLypBca4jqxsCxjCPI-29" value="Обувь" style="rounded=0;whiteSpace=wrap;html=1;" parent="1" vertex="1">
          <mxGeometry x="634" y="355" width="70" height="27" as="geometry" />
        </mxCell>
        <mxCell id="KlGLypBca4jqxsCxjCPI-30" value="Аксессуары" style="rounded=0;whiteSpace=wrap;html=1;" parent="1" vertex="1">
          <mxGeometry x="632.5" y="395" width="70" height="27" as="geometry" />
        </mxCell>
        <mxCell id="KlGLypBca4jqxsCxjCPI-31" value="Красота" style="rounded=0;whiteSpace=wrap;html=1;" parent="1" vertex="1">
          <mxGeometry x="632.5" y="434" width="70" height="27" as="geometry" />
        </mxCell>
        <mxCell id="KlGLypBca4jqxsCxjCPI-32" value="Дом" style="rounded=0;whiteSpace=wrap;html=1;" parent="1" vertex="1">
          <mxGeometry x="632.5" y="473" width="70" height="27" as="geometry" />
        </mxCell>
        <mxCell id="KlGLypBca4jqxsCxjCPI-35" value="Фильтр" style="rounded=1;whiteSpace=wrap;html=1;" parent="1" vertex="1">
          <mxGeometry x="1052" y="244.5" width="62" height="26" as="geometry" />
        </mxCell>
        <mxCell id="KlGLypBca4jqxsCxjCPI-38" value="" style="endArrow=none;dashed=1;html=1;dashPattern=1 3;strokeWidth=2;rounded=0;exitX=1;exitY=0.5;exitDx=0;exitDy=0;" parent="1" source="KlGLypBca4jqxsCxjCPI-35" edge="1">
          <mxGeometry width="50" height="50" relative="1" as="geometry">
            <mxPoint x="1153" y="250" as="sourcePoint" />
            <mxPoint x="1148" y="258" as="targetPoint" />
          </mxGeometry>
        </mxCell>
        <mxCell id="KlGLypBca4jqxsCxjCPI-39" value="" style="endArrow=none;html=1;rounded=0;exitX=0.038;exitY=1.134;exitDx=0;exitDy=0;exitPerimeter=0;" parent="1" source="KlGLypBca4jqxsCxjCPI-47" edge="1">
          <mxGeometry width="50" height="50" relative="1" as="geometry">
            <mxPoint x="1148" y="326" as="sourcePoint" />
            <mxPoint x="1148" y="192.5" as="targetPoint" />
          </mxGeometry>
        </mxCell>
        <mxCell id="KlGLypBca4jqxsCxjCPI-40" value="" style="endArrow=none;html=1;rounded=0;" parent="1" edge="1">
          <mxGeometry width="50" height="50" relative="1" as="geometry">
            <mxPoint x="1148" y="192" as="sourcePoint" />
            <mxPoint x="1173" y="192" as="targetPoint" />
          </mxGeometry>
        </mxCell>
        <mxCell id="KlGLypBca4jqxsCxjCPI-41" value="" style="endArrow=none;html=1;rounded=0;" parent="1" edge="1">
          <mxGeometry width="50" height="50" relative="1" as="geometry">
            <mxPoint x="1150" y="299" as="sourcePoint" />
            <mxPoint x="1175" y="299" as="targetPoint" />
          </mxGeometry>
        </mxCell>
        <mxCell id="KlGLypBca4jqxsCxjCPI-42" value="- цвет" style="text;html=1;align=center;verticalAlign=middle;resizable=0;points=[];autosize=1;strokeColor=none;fillColor=none;" parent="1" vertex="1">
          <mxGeometry x="1147" y="194" width="50" height="26" as="geometry" />
        </mxCell>
        <mxCell id="KlGLypBca4jqxsCxjCPI-43" value="- размер" style="text;html=1;align=center;verticalAlign=middle;resizable=0;points=[];autosize=1;strokeColor=none;fillColor=none;" parent="1" vertex="1">
          <mxGeometry x="1147" y="220" width="66" height="26" as="geometry" />
        </mxCell>
        <mxCell id="KlGLypBca4jqxsCxjCPI-46" value="- бренд" style="text;html=1;align=center;verticalAlign=middle;resizable=0;points=[];autosize=1;strokeColor=none;fillColor=none;" parent="1" vertex="1">
          <mxGeometry x="1147" y="244.5" width="59" height="26" as="geometry" />
        </mxCell>
        <mxCell id="KlGLypBca4jqxsCxjCPI-47" value="- цена" style="text;html=1;align=center;verticalAlign=middle;resizable=0;points=[];autosize=1;strokeColor=none;fillColor=none;" parent="1" vertex="1">
          <mxGeometry x="1147" y="268.51" width="52" height="26" as="geometry" />
        </mxCell>
        <mxCell id="DQEnEy_YY9lBbLi0-GhG-3" value="" style="endArrow=classic;html=1;rounded=0;exitX=1;exitY=0.5;exitDx=0;exitDy=0;entryX=0.5;entryY=0;entryDx=0;entryDy=0;edgeStyle=orthogonalEdgeStyle;strokeColor=#FF0000;strokeWidth=2;" edge="1" parent="1" source="KlGLypBca4jqxsCxjCPI-33" target="lJF0jtRhuvwRpikgw8jF-30">
          <mxGeometry width="50" height="50" relative="1" as="geometry">
            <mxPoint x="861" y="210" as="sourcePoint" />
            <mxPoint x="911" y="160" as="targetPoint" />
            <Array as="points">
              <mxPoint x="857" y="369" />
              <mxPoint x="857" y="190" />
              <mxPoint x="1018" y="190" />
            </Array>
          </mxGeometry>
        </mxCell>
        <mxCell id="DQEnEy_YY9lBbLi0-GhG-4" value="переходим к просмотру женской обуви" style="edgeLabel;html=1;align=center;verticalAlign=middle;resizable=0;points=[];" vertex="1" connectable="0" parent="DQEnEy_YY9lBbLi0-GhG-3">
          <mxGeometry x="0.4969" y="1" relative="1" as="geometry">
            <mxPoint x="21" y="-3" as="offset" />
          </mxGeometry>
        </mxCell>
        <mxCell id="DQEnEy_YY9lBbLi0-GhG-5" value="" style="rounded=1;whiteSpace=wrap;html=1;" vertex="1" parent="1">
          <mxGeometry x="1251" y="211.02999999999997" width="216" height="355" as="geometry" />
        </mxCell>
        <mxCell id="DQEnEy_YY9lBbLi0-GhG-43" style="edgeStyle=orthogonalEdgeStyle;rounded=0;orthogonalLoop=1;jettySize=auto;html=1;entryX=0.5;entryY=0;entryDx=0;entryDy=0;exitX=0;exitY=1;exitDx=0;exitDy=0;strokeWidth=2;strokeColor=#FF0000;" edge="1" parent="1" source="DQEnEy_YY9lBbLi0-GhG-35" target="DQEnEy_YY9lBbLi0-GhG-36">
          <mxGeometry relative="1" as="geometry">
            <Array as="points">
              <mxPoint x="1294" y="489" />
              <mxPoint x="1294" y="632" />
              <mxPoint x="1030" y="632" />
            </Array>
          </mxGeometry>
        </mxCell>
        <mxCell id="DQEnEy_YY9lBbLi0-GhG-44" value="при получении" style="edgeLabel;html=1;align=center;verticalAlign=middle;resizable=0;points=[];" vertex="1" connectable="0" parent="DQEnEy_YY9lBbLi0-GhG-43">
          <mxGeometry x="0.045" y="2" relative="1" as="geometry">
            <mxPoint x="-63" y="-14" as="offset" />
          </mxGeometry>
        </mxCell>
        <mxCell id="DQEnEy_YY9lBbLi0-GhG-6" value="Корзина" style="whiteSpace=wrap;html=1;aspect=fixed;" vertex="1" parent="1">
          <mxGeometry x="1331.5" y="507.03" width="55" height="55" as="geometry" />
        </mxCell>
        <mxCell id="DQEnEy_YY9lBbLi0-GhG-7" value="Акционный товар 3" style="rounded=0;whiteSpace=wrap;html=1;" vertex="1" parent="1">
          <mxGeometry x="1299" y="264.03" width="120" height="52" as="geometry" />
        </mxCell>
        <mxCell id="DQEnEy_YY9lBbLi0-GhG-8" value="Назад" style="rounded=1;whiteSpace=wrap;html=1;" vertex="1" parent="1">
          <mxGeometry x="1264" y="226.02999999999997" width="43" height="30" as="geometry" />
        </mxCell>
        <mxCell id="DQEnEy_YY9lBbLi0-GhG-9" value="Способ и адрес доставки" style="rounded=0;whiteSpace=wrap;html=1;" vertex="1" parent="1">
          <mxGeometry x="1264" y="336.03" width="112" height="32.97" as="geometry" />
        </mxCell>
        <mxCell id="DQEnEy_YY9lBbLi0-GhG-10" value="Способ оплаты" style="rounded=0;whiteSpace=wrap;html=1;" vertex="1" parent="1">
          <mxGeometry x="1264" y="385.5" width="113" height="26.47" as="geometry" />
        </mxCell>
        <mxCell id="DQEnEy_YY9lBbLi0-GhG-14" value="" style="whiteSpace=wrap;html=1;aspect=fixed;strokeColor=#FF0000;strokeWidth=2;" vertex="1" parent="1">
          <mxGeometry x="1008.5" y="507.03" width="19" height="19" as="geometry" />
        </mxCell>
        <mxCell id="DQEnEy_YY9lBbLi0-GhG-12" value="1" style="whiteSpace=wrap;html=1;aspect=fixed;" vertex="1" parent="1">
          <mxGeometry x="1010" y="507.03" width="16" height="16" as="geometry" />
        </mxCell>
        <mxCell id="DQEnEy_YY9lBbLi0-GhG-35" value="" style="rounded=0;whiteSpace=wrap;html=1;strokeColor=#FF0000;strokeWidth=2;" vertex="1" parent="1">
          <mxGeometry x="1289" y="445" width="140" height="44" as="geometry" />
        </mxCell>
        <mxCell id="DQEnEy_YY9lBbLi0-GhG-13" value="Перейти к оплате" style="rounded=0;whiteSpace=wrap;html=1;" vertex="1" parent="1">
          <mxGeometry x="1294.5" y="449" width="130.5" height="37" as="geometry" />
        </mxCell>
        <mxCell id="DQEnEy_YY9lBbLi0-GhG-15" value="" style="endArrow=classic;html=1;rounded=0;exitX=0.5;exitY=1;exitDx=0;exitDy=0;entryX=0.5;entryY=0;entryDx=0;entryDy=0;edgeStyle=orthogonalEdgeStyle;strokeWidth=2;strokeColor=#FF0000;" edge="1" parent="1" source="lJF0jtRhuvwRpikgw8jF-57" target="DQEnEy_YY9lBbLi0-GhG-12">
          <mxGeometry width="50" height="50" relative="1" as="geometry">
            <mxPoint x="1047" y="661" as="sourcePoint" />
            <mxPoint x="1097" y="611" as="targetPoint" />
          </mxGeometry>
        </mxCell>
        <mxCell id="DQEnEy_YY9lBbLi0-GhG-16" value="" style="endArrow=classic;html=1;rounded=0;exitX=1;exitY=0.25;exitDx=0;exitDy=0;entryX=0;entryY=0.5;entryDx=0;entryDy=0;edgeStyle=orthogonalEdgeStyle;strokeColor=#FF0000;strokeWidth=2;" edge="1" parent="1" source="DQEnEy_YY9lBbLi0-GhG-14" target="DQEnEy_YY9lBbLi0-GhG-5">
          <mxGeometry width="50" height="50" relative="1" as="geometry">
            <mxPoint x="1169" y="629" as="sourcePoint" />
            <mxPoint x="1219" y="579" as="targetPoint" />
            <Array as="points">
              <mxPoint x="1170" y="512" />
              <mxPoint x="1170" y="389" />
            </Array>
          </mxGeometry>
        </mxCell>
        <mxCell id="DQEnEy_YY9lBbLi0-GhG-17" value="переходим в корзину" style="edgeLabel;html=1;align=center;verticalAlign=middle;resizable=0;points=[];" vertex="1" connectable="0" parent="DQEnEy_YY9lBbLi0-GhG-16">
          <mxGeometry x="0.0751" y="-5" relative="1" as="geometry">
            <mxPoint as="offset" />
          </mxGeometry>
        </mxCell>
        <mxCell id="DQEnEy_YY9lBbLi0-GhG-18" value="" style="endArrow=none;dashed=1;html=1;dashPattern=1 3;strokeWidth=2;rounded=0;exitX=1;exitY=0.5;exitDx=0;exitDy=0;edgeStyle=orthogonalEdgeStyle;" edge="1" parent="1" source="DQEnEy_YY9lBbLi0-GhG-10">
          <mxGeometry width="50" height="50" relative="1" as="geometry">
            <mxPoint x="1463" y="404" as="sourcePoint" />
            <mxPoint x="1519" y="465" as="targetPoint" />
            <Array as="points">
              <mxPoint x="1479" y="399" />
              <mxPoint x="1479" y="465" />
              <mxPoint x="1519" y="465" />
            </Array>
          </mxGeometry>
        </mxCell>
        <mxCell id="DQEnEy_YY9lBbLi0-GhG-19" value="" style="endArrow=none;html=1;rounded=0;" edge="1" parent="1">
          <mxGeometry width="50" height="50" relative="1" as="geometry">
            <mxPoint x="1520" y="487" as="sourcePoint" />
            <mxPoint x="1520" y="411" as="targetPoint" />
          </mxGeometry>
        </mxCell>
        <mxCell id="DQEnEy_YY9lBbLi0-GhG-20" value="- при получении" style="text;html=1;align=center;verticalAlign=middle;resizable=0;points=[];autosize=1;strokeColor=none;fillColor=none;" vertex="1" parent="1">
          <mxGeometry x="1519" y="411.97" width="107" height="26" as="geometry" />
        </mxCell>
        <mxCell id="DQEnEy_YY9lBbLi0-GhG-21" value="&amp;nbsp;- СБП онлайн" style="text;html=1;align=center;verticalAlign=middle;whiteSpace=wrap;rounded=0;" vertex="1" parent="1">
          <mxGeometry x="1519" y="432.5" width="91" height="30" as="geometry" />
        </mxCell>
        <mxCell id="DQEnEy_YY9lBbLi0-GhG-22" value="- картой онлайн" style="text;html=1;align=center;verticalAlign=middle;whiteSpace=wrap;rounded=0;" vertex="1" parent="1">
          <mxGeometry x="1522.5" y="452.5" width="100" height="30" as="geometry" />
        </mxCell>
        <mxCell id="DQEnEy_YY9lBbLi0-GhG-24" value="" style="endArrow=none;html=1;rounded=0;" edge="1" parent="1">
          <mxGeometry width="50" height="50" relative="1" as="geometry">
            <mxPoint x="1519" y="411.96999999999997" as="sourcePoint" />
            <mxPoint x="1538" y="411.96999999999997" as="targetPoint" />
          </mxGeometry>
        </mxCell>
        <mxCell id="DQEnEy_YY9lBbLi0-GhG-25" value="" style="endArrow=none;html=1;rounded=0;" edge="1" parent="1">
          <mxGeometry width="50" height="50" relative="1" as="geometry">
            <mxPoint x="1519" y="486" as="sourcePoint" />
            <mxPoint x="1544" y="486" as="targetPoint" />
          </mxGeometry>
        </mxCell>
        <mxCell id="DQEnEy_YY9lBbLi0-GhG-26" value="" style="endArrow=none;dashed=1;html=1;dashPattern=1 3;strokeWidth=2;rounded=0;exitX=1;exitY=0.5;exitDx=0;exitDy=0;" edge="1" parent="1" source="DQEnEy_YY9lBbLi0-GhG-9">
          <mxGeometry width="50" height="50" relative="1" as="geometry">
            <mxPoint x="1499" y="341" as="sourcePoint" />
            <mxPoint x="1495" y="353" as="targetPoint" />
          </mxGeometry>
        </mxCell>
        <mxCell id="DQEnEy_YY9lBbLi0-GhG-27" value="- самовывоз" style="text;html=1;align=center;verticalAlign=middle;resizable=0;points=[];autosize=1;strokeColor=none;fillColor=none;" vertex="1" parent="1">
          <mxGeometry x="1491" y="314.5" width="86" height="26" as="geometry" />
        </mxCell>
        <mxCell id="DQEnEy_YY9lBbLi0-GhG-28" value="- курьер" style="text;html=1;align=center;verticalAlign=middle;resizable=0;points=[];autosize=1;strokeColor=none;fillColor=none;" vertex="1" parent="1">
          <mxGeometry x="1491" y="336" width="63" height="26" as="geometry" />
        </mxCell>
        <mxCell id="DQEnEy_YY9lBbLi0-GhG-29" value="- постамат" style="text;html=1;align=center;verticalAlign=middle;resizable=0;points=[];autosize=1;strokeColor=none;fillColor=none;" vertex="1" parent="1">
          <mxGeometry x="1495.5" y="356" width="77" height="26" as="geometry" />
        </mxCell>
        <mxCell id="DQEnEy_YY9lBbLi0-GhG-30" value="" style="endArrow=none;html=1;rounded=0;entryX=-0.016;entryY=0.16;entryDx=0;entryDy=0;entryPerimeter=0;" edge="1" parent="1" target="DQEnEy_YY9lBbLi0-GhG-27">
          <mxGeometry width="50" height="50" relative="1" as="geometry">
            <mxPoint x="1490" y="383" as="sourcePoint" />
            <mxPoint x="1516" y="319" as="targetPoint" />
          </mxGeometry>
        </mxCell>
        <mxCell id="DQEnEy_YY9lBbLi0-GhG-31" value="" style="endArrow=none;html=1;rounded=0;entryX=0.217;entryY=0.16;entryDx=0;entryDy=0;entryPerimeter=0;" edge="1" parent="1" target="DQEnEy_YY9lBbLi0-GhG-27">
          <mxGeometry width="50" height="50" relative="1" as="geometry">
            <mxPoint x="1490" y="319" as="sourcePoint" />
            <mxPoint x="1540" y="270" as="targetPoint" />
          </mxGeometry>
        </mxCell>
        <mxCell id="DQEnEy_YY9lBbLi0-GhG-33" value="" style="endArrow=none;html=1;rounded=0;entryX=0.236;entryY=0.974;entryDx=0;entryDy=0;entryPerimeter=0;" edge="1" parent="1" target="DQEnEy_YY9lBbLi0-GhG-29">
          <mxGeometry width="50" height="50" relative="1" as="geometry">
            <mxPoint x="1491" y="382" as="sourcePoint" />
            <mxPoint x="1541" y="332" as="targetPoint" />
          </mxGeometry>
        </mxCell>
        <mxCell id="DQEnEy_YY9lBbLi0-GhG-34" value="1" style="whiteSpace=wrap;html=1;aspect=fixed;" vertex="1" parent="1">
          <mxGeometry x="1351" y="508.53" width="16" height="16" as="geometry" />
        </mxCell>
        <mxCell id="DQEnEy_YY9lBbLi0-GhG-36" value="" style="rounded=1;whiteSpace=wrap;html=1;" vertex="1" parent="1">
          <mxGeometry x="922" y="721.0000000000001" width="216" height="355" as="geometry" />
        </mxCell>
        <mxCell id="DQEnEy_YY9lBbLi0-GhG-37" value="" style="rounded=1;whiteSpace=wrap;html=1;" vertex="1" parent="1">
          <mxGeometry x="1264" y="713.0000000000001" width="216" height="355" as="geometry" />
        </mxCell>
        <mxCell id="DQEnEy_YY9lBbLi0-GhG-38" value="" style="rounded=1;whiteSpace=wrap;html=1;" vertex="1" parent="1">
          <mxGeometry x="1593" y="709.0000000000001" width="216" height="355" as="geometry" />
        </mxCell>
        <mxCell id="DQEnEy_YY9lBbLi0-GhG-39" value="Названия банков" style="rounded=0;whiteSpace=wrap;html=1;" vertex="1" parent="1">
          <mxGeometry x="1312" y="772" width="120" height="42" as="geometry" />
        </mxCell>
        <mxCell id="DQEnEy_YY9lBbLi0-GhG-41" value="Перейти в приложение банка" style="rounded=0;whiteSpace=wrap;html=1;" vertex="1" parent="1">
          <mxGeometry x="1322" y="1008" width="110" height="42" as="geometry" />
        </mxCell>
        <mxCell id="DQEnEy_YY9lBbLi0-GhG-46" value="Готово! Ждите получения заказа!&amp;nbsp;" style="rounded=0;whiteSpace=wrap;html=1;fillColor=#d5e8d4;strokeColor=#82b366;" vertex="1" parent="1">
          <mxGeometry x="938" y="832" width="174" height="82" as="geometry" />
        </mxCell>
        <mxCell id="DQEnEy_YY9lBbLi0-GhG-47" value="" style="endArrow=classic;html=1;rounded=0;exitX=0.75;exitY=1;exitDx=0;exitDy=0;entryX=0.75;entryY=0;entryDx=0;entryDy=0;edgeStyle=orthogonalEdgeStyle;strokeColor=#FF0000;strokeWidth=2;" edge="1" parent="1" source="DQEnEy_YY9lBbLi0-GhG-35" target="DQEnEy_YY9lBbLi0-GhG-37">
          <mxGeometry width="50" height="50" relative="1" as="geometry">
            <mxPoint x="1439" y="659" as="sourcePoint" />
            <mxPoint x="1489" y="609" as="targetPoint" />
          </mxGeometry>
        </mxCell>
        <mxCell id="DQEnEy_YY9lBbLi0-GhG-48" value="при СБП онлайн" style="edgeLabel;html=1;align=center;verticalAlign=middle;resizable=0;points=[];" vertex="1" connectable="0" parent="DQEnEy_YY9lBbLi0-GhG-47">
          <mxGeometry x="0.1953" y="-8" relative="1" as="geometry">
            <mxPoint y="1" as="offset" />
          </mxGeometry>
        </mxCell>
        <mxCell id="DQEnEy_YY9lBbLi0-GhG-49" value="" style="endArrow=classic;html=1;rounded=0;exitX=1;exitY=1;exitDx=0;exitDy=0;entryX=0.5;entryY=0;entryDx=0;entryDy=0;edgeStyle=orthogonalEdgeStyle;strokeWidth=2;strokeColor=#FF0000;" edge="1" parent="1" source="DQEnEy_YY9lBbLi0-GhG-35" target="DQEnEy_YY9lBbLi0-GhG-38">
          <mxGeometry width="50" height="50" relative="1" as="geometry">
            <mxPoint x="1577" y="597" as="sourcePoint" />
            <mxPoint x="1627" y="547" as="targetPoint" />
            <Array as="points">
              <mxPoint x="1429" y="514" />
              <mxPoint x="1522" y="514" />
              <mxPoint x="1522" y="599" />
              <mxPoint x="1701" y="599" />
            </Array>
          </mxGeometry>
        </mxCell>
        <mxCell id="DQEnEy_YY9lBbLi0-GhG-50" value="при оплате картой онлайн" style="edgeLabel;html=1;align=center;verticalAlign=middle;resizable=0;points=[];" vertex="1" connectable="0" parent="DQEnEy_YY9lBbLi0-GhG-49">
          <mxGeometry x="-0.0203" y="1" relative="1" as="geometry">
            <mxPoint x="35" y="2" as="offset" />
          </mxGeometry>
        </mxCell>
        <mxCell id="DQEnEy_YY9lBbLi0-GhG-52" value="Данные карты" style="rounded=0;whiteSpace=wrap;html=1;" vertex="1" parent="1">
          <mxGeometry x="1640" y="770" width="122" height="44" as="geometry" />
        </mxCell>
        <mxCell id="DQEnEy_YY9lBbLi0-GhG-53" value="Подтвердить оплату" style="rounded=0;whiteSpace=wrap;html=1;" vertex="1" parent="1">
          <mxGeometry x="1644" y="1010" width="122" height="40" as="geometry" />
        </mxCell>
        <mxCell id="DQEnEy_YY9lBbLi0-GhG-54" value="" style="endArrow=classic;html=1;rounded=0;exitX=0.5;exitY=1;exitDx=0;exitDy=0;entryX=1;entryY=0.5;entryDx=0;entryDy=0;edgeStyle=orthogonalEdgeStyle;strokeColor=#FF0000;strokeWidth=2;" edge="1" parent="1" source="DQEnEy_YY9lBbLi0-GhG-37" target="DQEnEy_YY9lBbLi0-GhG-36">
          <mxGeometry width="50" height="50" relative="1" as="geometry">
            <mxPoint x="1371" y="1143" as="sourcePoint" />
            <mxPoint x="1421" y="1093" as="targetPoint" />
          </mxGeometry>
        </mxCell>
        <mxCell id="DQEnEy_YY9lBbLi0-GhG-57" value="совершить заказ" style="edgeLabel;html=1;align=center;verticalAlign=middle;resizable=0;points=[];" vertex="1" connectable="0" parent="DQEnEy_YY9lBbLi0-GhG-54">
          <mxGeometry x="0.7827" y="-3" relative="1" as="geometry">
            <mxPoint x="16" as="offset" />
          </mxGeometry>
        </mxCell>
        <mxCell id="DQEnEy_YY9lBbLi0-GhG-55" value="" style="endArrow=classic;html=1;rounded=0;exitX=0.5;exitY=1;exitDx=0;exitDy=0;entryX=0.5;entryY=1;entryDx=0;entryDy=0;edgeStyle=orthogonalEdgeStyle;strokeColor=#FF0000;strokeWidth=2;" edge="1" parent="1" source="DQEnEy_YY9lBbLi0-GhG-38" target="DQEnEy_YY9lBbLi0-GhG-36">
          <mxGeometry width="50" height="50" relative="1" as="geometry">
            <mxPoint x="1715" y="1115" as="sourcePoint" />
            <mxPoint x="1765" y="1065" as="targetPoint" />
            <Array as="points">
              <mxPoint x="1701" y="1124" />
              <mxPoint x="1030" y="1124" />
            </Array>
          </mxGeometry>
        </mxCell>
        <mxCell id="DQEnEy_YY9lBbLi0-GhG-56" value="совершить заказ" style="edgeLabel;html=1;align=center;verticalAlign=middle;resizable=0;points=[];" vertex="1" connectable="0" parent="DQEnEy_YY9lBbLi0-GhG-55">
          <mxGeometry x="0.1014" relative="1" as="geometry">
            <mxPoint x="-1" as="offset" />
          </mxGeometry>
        </mxCell>
      </root>
    </mxGraphModel>
  </diagram>
</mxfile>
